<svg width="25" height="25" viewBox="0 0 25 25" fill="none" xmlns="http://www.w3.org/2000/svg">
<path d="M22.9127 2.05427C21.0583 0.200066 19.4081 0 18.7842 0C18.5838 0 18.4558 0.0188259 18.4099 0.026803C18.2487 0.0552016 18.1003 0.132739 17.9848 0.248248L14.582 3.65065L14.581 3.65129L14.5804 3.65193L2.69808 15.5327C2.69808 15.5327 2.69713 15.5337 2.69649 15.534C2.69585 15.5343 2.69553 15.5353 2.69489 15.5356L1.66252 16.5682C1.55147 16.6792 1.47584 16.8203 1.44456 16.9741L0.0158416 24.0443C-0.0371331 24.3063 0.0445626 24.5772 0.233803 24.7664C0.385068 24.9174 0.588351 25 0.798016 25C0.850671 25 0.903646 24.9949 0.955982 24.984L8.02618 23.5549C8.18 23.5239 8.32137 23.4483 8.43211 23.3369L9.46576 22.3034L9.46639 22.3028L9.46703 22.3021L24.7544 7.01668C24.8747 6.89671 24.9532 6.74099 24.979 6.57315C25.0122 6.35554 25.2369 4.37817 22.9127 2.05427ZM8.9025 20.611L4.38912 16.0985L15.1452 5.3434L19.6586 9.8559L8.9025 20.611ZM1.81762 23.1822L2.96072 17.5264L3.2607 17.2264L7.77408 21.7389L7.4741 22.0389L1.81762 23.1822ZM20.7867 8.72794L16.2733 4.21543L18.8905 1.59862C19.327 1.62542 20.4401 1.83825 21.7843 3.18224C23.1406 4.53867 23.3687 5.65897 23.4003 6.11431L20.7867 8.72794Z" fill="#406B96"/>
</svg>
